<mxfile host="app.diagrams.net" agent="Mozilla/5.0 (X11; Linux x86_64; rv:127.0) Gecko/20100101 Firefox/127.0" version="24.7.16">
  <diagram name="PÃ¡gina-1" id="-LFT9OT-KLbQ5YFDQJQC">
    <mxGraphModel dx="1434" dy="763" grid="1" gridSize="10" guides="1" tooltips="1" connect="1" arrows="1" fold="1" page="1" pageScale="1" pageWidth="827" pageHeight="1169" math="0" shadow="0">
      <root>
        <mxCell id="0" />
        <mxCell id="1" parent="0" />
        <mxCell id="xnjiOy1totS6Ebt6B5Ss-13" style="edgeStyle=none;shape=connector;rounded=0;orthogonalLoop=1;jettySize=auto;html=1;exitX=0.5;exitY=0;exitDx=0;exitDy=0;entryX=0.5;entryY=1;entryDx=0;entryDy=0;strokeColor=default;align=center;verticalAlign=middle;fontFamily=Helvetica;fontSize=11;fontColor=default;labelBackgroundColor=default;endArrow=none;endFill=0;" edge="1" parent="1" target="xnjiOy1totS6Ebt6B5Ss-9">
          <mxGeometry relative="1" as="geometry">
            <mxPoint x="414" y="370" as="sourcePoint" />
          </mxGeometry>
        </mxCell>
        <mxCell id="xnjiOy1totS6Ebt6B5Ss-105" style="edgeStyle=none;shape=connector;rounded=0;orthogonalLoop=1;jettySize=auto;html=1;exitX=1;exitY=0;exitDx=0;exitDy=0;entryX=0;entryY=1;entryDx=0;entryDy=0;strokeColor=default;align=center;verticalAlign=middle;fontFamily=Helvetica;fontSize=11;fontColor=default;labelBackgroundColor=default;endArrow=none;endFill=0;" edge="1" parent="1" source="xnjiOy1totS6Ebt6B5Ss-1" target="xnjiOy1totS6Ebt6B5Ss-53">
          <mxGeometry relative="1" as="geometry" />
        </mxCell>
        <mxCell id="xnjiOy1totS6Ebt6B5Ss-106" style="edgeStyle=none;shape=connector;rounded=0;orthogonalLoop=1;jettySize=auto;html=1;exitX=0;exitY=0;exitDx=0;exitDy=0;entryX=1;entryY=1;entryDx=0;entryDy=0;strokeColor=default;align=center;verticalAlign=middle;fontFamily=Helvetica;fontSize=11;fontColor=default;labelBackgroundColor=default;endArrow=none;endFill=0;" edge="1" parent="1" source="xnjiOy1totS6Ebt6B5Ss-1" target="xnjiOy1totS6Ebt6B5Ss-54">
          <mxGeometry relative="1" as="geometry" />
        </mxCell>
        <mxCell id="xnjiOy1totS6Ebt6B5Ss-1" value="Ponencias" style="rounded=0;whiteSpace=wrap;html=1;" vertex="1" parent="1">
          <mxGeometry x="354" y="340" width="120" height="60" as="geometry" />
        </mxCell>
        <mxCell id="xnjiOy1totS6Ebt6B5Ss-55" style="edgeStyle=none;shape=connector;rounded=0;orthogonalLoop=1;jettySize=auto;html=1;exitX=0.5;exitY=0;exitDx=0;exitDy=0;entryX=0.5;entryY=1;entryDx=0;entryDy=0;strokeColor=default;align=center;verticalAlign=middle;fontFamily=Helvetica;fontSize=11;fontColor=default;labelBackgroundColor=default;endArrow=none;endFill=0;" edge="1" parent="1" source="xnjiOy1totS6Ebt6B5Ss-2" target="xnjiOy1totS6Ebt6B5Ss-52">
          <mxGeometry relative="1" as="geometry" />
        </mxCell>
        <mxCell id="xnjiOy1totS6Ebt6B5Ss-2" value="Revisores" style="rounded=0;whiteSpace=wrap;html=1;" vertex="1" parent="1">
          <mxGeometry x="550" y="475" width="120" height="60" as="geometry" />
        </mxCell>
        <mxCell id="xnjiOy1totS6Ebt6B5Ss-43" style="edgeStyle=orthogonalEdgeStyle;shape=connector;rounded=0;orthogonalLoop=1;jettySize=auto;html=1;exitX=1;exitY=0.5;exitDx=0;exitDy=0;entryX=1;entryY=0.5;entryDx=0;entryDy=0;strokeColor=default;align=center;verticalAlign=middle;fontFamily=Helvetica;fontSize=11;fontColor=default;labelBackgroundColor=default;endArrow=none;endFill=0;" edge="1" parent="1" source="xnjiOy1totS6Ebt6B5Ss-3" target="xnjiOy1totS6Ebt6B5Ss-44">
          <mxGeometry relative="1" as="geometry">
            <Array as="points">
              <mxPoint x="760" y="700" />
              <mxPoint x="760" y="160" />
            </Array>
          </mxGeometry>
        </mxCell>
        <mxCell id="xnjiOy1totS6Ebt6B5Ss-80" style="edgeStyle=none;shape=connector;rounded=0;orthogonalLoop=1;jettySize=auto;html=1;exitX=0;exitY=0.5;exitDx=0;exitDy=0;entryX=1;entryY=0.5;entryDx=0;entryDy=0;strokeColor=default;align=center;verticalAlign=middle;fontFamily=Helvetica;fontSize=11;fontColor=default;labelBackgroundColor=default;endArrow=none;endFill=0;" edge="1" parent="1" source="xnjiOy1totS6Ebt6B5Ss-3" target="xnjiOy1totS6Ebt6B5Ss-78">
          <mxGeometry relative="1" as="geometry" />
        </mxCell>
        <mxCell id="xnjiOy1totS6Ebt6B5Ss-3" value="Participantes" style="rounded=0;whiteSpace=wrap;html=1;" vertex="1" parent="1">
          <mxGeometry x="364" y="670" width="120" height="60" as="geometry" />
        </mxCell>
        <mxCell id="xnjiOy1totS6Ebt6B5Ss-4" value="Autores" style="rounded=0;whiteSpace=wrap;html=1;" vertex="1" parent="1">
          <mxGeometry x="140" y="475" width="120" height="60" as="geometry" />
        </mxCell>
        <mxCell id="xnjiOy1totS6Ebt6B5Ss-6" value="Sesion" style="shape=ext;margin=3;double=1;whiteSpace=wrap;html=1;align=center;fontFamily=Helvetica;fontSize=11;fontColor=default;labelBackgroundColor=default;" vertex="1" parent="1">
          <mxGeometry x="354" y="130" width="120" height="60" as="geometry" />
        </mxCell>
        <mxCell id="xnjiOy1totS6Ebt6B5Ss-14" style="edgeStyle=none;shape=connector;rounded=0;orthogonalLoop=1;jettySize=auto;html=1;exitX=0.5;exitY=0;exitDx=0;exitDy=0;entryX=0.5;entryY=1;entryDx=0;entryDy=0;strokeColor=default;align=center;verticalAlign=middle;fontFamily=Helvetica;fontSize=11;fontColor=default;labelBackgroundColor=default;endArrow=none;endFill=0;" edge="1" parent="1" source="xnjiOy1totS6Ebt6B5Ss-9" target="xnjiOy1totS6Ebt6B5Ss-6">
          <mxGeometry relative="1" as="geometry" />
        </mxCell>
        <mxCell id="xnjiOy1totS6Ebt6B5Ss-9" value="Relationship" style="shape=rhombus;perimeter=rhombusPerimeter;whiteSpace=wrap;html=1;align=center;" vertex="1" parent="1">
          <mxGeometry x="364" y="230" width="100" height="70" as="geometry" />
        </mxCell>
        <mxCell id="xnjiOy1totS6Ebt6B5Ss-40" style="edgeStyle=none;shape=connector;rounded=0;orthogonalLoop=1;jettySize=auto;html=1;exitX=0.5;exitY=1;exitDx=0;exitDy=0;entryX=0.25;entryY=0;entryDx=0;entryDy=0;strokeColor=default;align=center;verticalAlign=middle;fontFamily=Helvetica;fontSize=11;fontColor=default;labelBackgroundColor=default;endArrow=none;endFill=0;" edge="1" parent="1" source="xnjiOy1totS6Ebt6B5Ss-37" target="xnjiOy1totS6Ebt6B5Ss-6">
          <mxGeometry relative="1" as="geometry" />
        </mxCell>
        <mxCell id="xnjiOy1totS6Ebt6B5Ss-37" value="&lt;u&gt;Id&lt;/u&gt;" style="ellipse;whiteSpace=wrap;html=1;align=center;fontFamily=Helvetica;fontSize=11;fontColor=default;labelBackgroundColor=default;" vertex="1" parent="1">
          <mxGeometry x="242" y="40" width="100" height="40" as="geometry" />
        </mxCell>
        <mxCell id="xnjiOy1totS6Ebt6B5Ss-42" style="edgeStyle=none;shape=connector;rounded=0;orthogonalLoop=1;jettySize=auto;html=1;exitX=0.5;exitY=1;exitDx=0;exitDy=0;entryX=0.75;entryY=0;entryDx=0;entryDy=0;strokeColor=default;align=center;verticalAlign=middle;fontFamily=Helvetica;fontSize=11;fontColor=default;labelBackgroundColor=default;endArrow=none;endFill=0;" edge="1" parent="1" source="xnjiOy1totS6Ebt6B5Ss-38" target="xnjiOy1totS6Ebt6B5Ss-6">
          <mxGeometry relative="1" as="geometry" />
        </mxCell>
        <mxCell id="xnjiOy1totS6Ebt6B5Ss-38" value="Hora" style="ellipse;whiteSpace=wrap;html=1;align=center;fontFamily=Helvetica;fontSize=11;fontColor=default;labelBackgroundColor=default;" vertex="1" parent="1">
          <mxGeometry x="484" y="40" width="100" height="40" as="geometry" />
        </mxCell>
        <mxCell id="xnjiOy1totS6Ebt6B5Ss-41" style="edgeStyle=none;shape=connector;rounded=0;orthogonalLoop=1;jettySize=auto;html=1;exitX=0.5;exitY=1;exitDx=0;exitDy=0;entryX=0.5;entryY=0;entryDx=0;entryDy=0;strokeColor=default;align=center;verticalAlign=middle;fontFamily=Helvetica;fontSize=11;fontColor=default;labelBackgroundColor=default;endArrow=none;endFill=0;" edge="1" parent="1" source="xnjiOy1totS6Ebt6B5Ss-39" target="xnjiOy1totS6Ebt6B5Ss-6">
          <mxGeometry relative="1" as="geometry" />
        </mxCell>
        <mxCell id="xnjiOy1totS6Ebt6B5Ss-39" value="Fecha" style="ellipse;whiteSpace=wrap;html=1;align=center;fontFamily=Helvetica;fontSize=11;fontColor=default;labelBackgroundColor=default;" vertex="1" parent="1">
          <mxGeometry x="364" y="40" width="100" height="40" as="geometry" />
        </mxCell>
        <mxCell id="xnjiOy1totS6Ebt6B5Ss-45" style="edgeStyle=none;shape=connector;rounded=0;orthogonalLoop=1;jettySize=auto;html=1;exitX=0;exitY=0.5;exitDx=0;exitDy=0;entryX=1;entryY=0.5;entryDx=0;entryDy=0;strokeColor=default;align=center;verticalAlign=middle;fontFamily=Helvetica;fontSize=11;fontColor=default;labelBackgroundColor=default;endArrow=none;endFill=0;" edge="1" parent="1" source="xnjiOy1totS6Ebt6B5Ss-44" target="xnjiOy1totS6Ebt6B5Ss-6">
          <mxGeometry relative="1" as="geometry" />
        </mxCell>
        <mxCell id="xnjiOy1totS6Ebt6B5Ss-44" value="Relationship" style="shape=rhombus;perimeter=rhombusPerimeter;whiteSpace=wrap;html=1;align=center;" vertex="1" parent="1">
          <mxGeometry x="560" y="125" width="100" height="70" as="geometry" />
        </mxCell>
        <mxCell id="xnjiOy1totS6Ebt6B5Ss-57" style="edgeStyle=none;shape=connector;rounded=0;orthogonalLoop=1;jettySize=auto;html=1;exitX=1;exitY=0.5;exitDx=0;exitDy=0;entryX=0;entryY=0.5;entryDx=0;entryDy=0;strokeColor=default;align=center;verticalAlign=middle;fontFamily=Helvetica;fontSize=11;fontColor=default;labelBackgroundColor=default;endArrow=none;endFill=0;" edge="1" parent="1" source="xnjiOy1totS6Ebt6B5Ss-51" target="xnjiOy1totS6Ebt6B5Ss-1">
          <mxGeometry relative="1" as="geometry" />
        </mxCell>
        <mxCell id="xnjiOy1totS6Ebt6B5Ss-58" style="edgeStyle=none;shape=connector;rounded=0;orthogonalLoop=1;jettySize=auto;html=1;exitX=0.5;exitY=1;exitDx=0;exitDy=0;strokeColor=default;align=center;verticalAlign=middle;fontFamily=Helvetica;fontSize=11;fontColor=default;labelBackgroundColor=default;endArrow=none;endFill=0;" edge="1" parent="1" source="xnjiOy1totS6Ebt6B5Ss-51" target="xnjiOy1totS6Ebt6B5Ss-4">
          <mxGeometry relative="1" as="geometry" />
        </mxCell>
        <mxCell id="xnjiOy1totS6Ebt6B5Ss-51" value="Relationship" style="shape=rhombus;perimeter=rhombusPerimeter;whiteSpace=wrap;html=1;align=center;" vertex="1" parent="1">
          <mxGeometry x="150" y="335" width="100" height="70" as="geometry" />
        </mxCell>
        <mxCell id="xnjiOy1totS6Ebt6B5Ss-56" style="edgeStyle=none;shape=connector;rounded=0;orthogonalLoop=1;jettySize=auto;html=1;exitX=0;exitY=0.5;exitDx=0;exitDy=0;strokeColor=default;align=center;verticalAlign=middle;fontFamily=Helvetica;fontSize=11;fontColor=default;labelBackgroundColor=default;endArrow=none;endFill=0;" edge="1" parent="1" source="xnjiOy1totS6Ebt6B5Ss-52" target="xnjiOy1totS6Ebt6B5Ss-1">
          <mxGeometry relative="1" as="geometry" />
        </mxCell>
        <mxCell id="xnjiOy1totS6Ebt6B5Ss-52" value="Relationship" style="shape=rhombus;perimeter=rhombusPerimeter;whiteSpace=wrap;html=1;align=center;" vertex="1" parent="1">
          <mxGeometry x="560" y="335" width="100" height="70" as="geometry" />
        </mxCell>
        <mxCell id="xnjiOy1totS6Ebt6B5Ss-53" value="&lt;u&gt;Titulo&lt;/u&gt;" style="ellipse;whiteSpace=wrap;html=1;align=center;fontFamily=Helvetica;fontSize=11;fontColor=default;labelBackgroundColor=default;" vertex="1" parent="1">
          <mxGeometry x="530" y="270" width="100" height="40" as="geometry" />
        </mxCell>
        <mxCell id="xnjiOy1totS6Ebt6B5Ss-54" value="NumeroPag" style="ellipse;whiteSpace=wrap;html=1;align=center;fontFamily=Helvetica;fontSize=11;fontColor=default;labelBackgroundColor=default;" vertex="1" parent="1">
          <mxGeometry x="200" y="270" width="100" height="40" as="geometry" />
        </mxCell>
        <mxCell id="xnjiOy1totS6Ebt6B5Ss-60" style="edgeStyle=orthogonalEdgeStyle;shape=connector;rounded=0;orthogonalLoop=1;jettySize=auto;html=1;exitX=0.5;exitY=1;exitDx=0;exitDy=0;entryX=0.5;entryY=1;entryDx=0;entryDy=0;strokeColor=default;align=center;verticalAlign=middle;fontFamily=Helvetica;fontSize=11;fontColor=default;labelBackgroundColor=default;endArrow=none;endFill=0;" edge="1" parent="1" source="xnjiOy1totS6Ebt6B5Ss-59" target="xnjiOy1totS6Ebt6B5Ss-4">
          <mxGeometry relative="1" as="geometry" />
        </mxCell>
        <mxCell id="xnjiOy1totS6Ebt6B5Ss-61" style="edgeStyle=orthogonalEdgeStyle;shape=connector;rounded=0;orthogonalLoop=1;jettySize=auto;html=1;exitX=0.5;exitY=0;exitDx=0;exitDy=0;entryX=0.5;entryY=1;entryDx=0;entryDy=0;strokeColor=default;align=center;verticalAlign=middle;fontFamily=Helvetica;fontSize=11;fontColor=default;labelBackgroundColor=default;endArrow=none;endFill=0;" edge="1" parent="1" source="xnjiOy1totS6Ebt6B5Ss-59" target="xnjiOy1totS6Ebt6B5Ss-2">
          <mxGeometry relative="1" as="geometry" />
        </mxCell>
        <mxCell id="xnjiOy1totS6Ebt6B5Ss-62" style="edgeStyle=none;shape=connector;rounded=0;orthogonalLoop=1;jettySize=auto;html=1;exitX=1;exitY=0.5;exitDx=0;exitDy=0;strokeColor=default;align=center;verticalAlign=middle;fontFamily=Helvetica;fontSize=11;fontColor=default;labelBackgroundColor=default;endArrow=none;endFill=0;" edge="1" parent="1" source="xnjiOy1totS6Ebt6B5Ss-59" target="xnjiOy1totS6Ebt6B5Ss-3">
          <mxGeometry relative="1" as="geometry" />
        </mxCell>
        <mxCell id="xnjiOy1totS6Ebt6B5Ss-59" value="" style="triangle;whiteSpace=wrap;html=1;fontFamily=Helvetica;fontSize=11;fontColor=default;labelBackgroundColor=default;rotation=0;direction=south;" vertex="1" parent="1">
          <mxGeometry x="384" y="570" width="80" height="60" as="geometry" />
        </mxCell>
        <mxCell id="xnjiOy1totS6Ebt6B5Ss-71" style="edgeStyle=none;shape=connector;rounded=0;orthogonalLoop=1;jettySize=auto;html=1;exitX=0;exitY=0.5;exitDx=0;exitDy=0;entryX=1;entryY=0.5;entryDx=0;entryDy=0;strokeColor=default;align=center;verticalAlign=middle;fontFamily=Helvetica;fontSize=11;fontColor=default;labelBackgroundColor=default;endArrow=none;endFill=0;" edge="1" parent="1" source="xnjiOy1totS6Ebt6B5Ss-63" target="xnjiOy1totS6Ebt6B5Ss-4">
          <mxGeometry relative="1" as="geometry" />
        </mxCell>
        <mxCell id="xnjiOy1totS6Ebt6B5Ss-63" value="" style="shape=rhombus;perimeter=rhombusPerimeter;whiteSpace=wrap;html=1;align=center;" vertex="1" parent="1">
          <mxGeometry x="292" y="487.5" width="50" height="35" as="geometry" />
        </mxCell>
        <mxCell id="xnjiOy1totS6Ebt6B5Ss-70" style="edgeStyle=none;shape=connector;rounded=0;orthogonalLoop=1;jettySize=auto;html=1;exitX=0;exitY=0.5;exitDx=0;exitDy=0;entryX=1;entryY=0.5;entryDx=0;entryDy=0;strokeColor=default;align=center;verticalAlign=middle;fontFamily=Helvetica;fontSize=11;fontColor=default;labelBackgroundColor=default;endArrow=none;endFill=0;" edge="1" parent="1" source="xnjiOy1totS6Ebt6B5Ss-64" target="xnjiOy1totS6Ebt6B5Ss-63">
          <mxGeometry relative="1" as="geometry" />
        </mxCell>
        <mxCell id="xnjiOy1totS6Ebt6B5Ss-64" value="Pais" style="rounded=0;whiteSpace=wrap;html=1;" vertex="1" parent="1">
          <mxGeometry x="377" y="482.5" width="74" height="45" as="geometry" />
        </mxCell>
        <mxCell id="xnjiOy1totS6Ebt6B5Ss-69" style="edgeStyle=none;shape=connector;rounded=0;orthogonalLoop=1;jettySize=auto;html=1;exitX=0;exitY=0.5;exitDx=0;exitDy=0;strokeColor=default;align=center;verticalAlign=middle;fontFamily=Helvetica;fontSize=11;fontColor=default;labelBackgroundColor=default;endArrow=none;endFill=0;entryX=1;entryY=0.5;entryDx=0;entryDy=0;" edge="1" parent="1" source="xnjiOy1totS6Ebt6B5Ss-67" target="xnjiOy1totS6Ebt6B5Ss-64">
          <mxGeometry relative="1" as="geometry" />
        </mxCell>
        <mxCell id="xnjiOy1totS6Ebt6B5Ss-67" value="" style="shape=rhombus;perimeter=rhombusPerimeter;whiteSpace=wrap;html=1;align=center;" vertex="1" parent="1">
          <mxGeometry x="474" y="487.5" width="50" height="35" as="geometry" />
        </mxCell>
        <mxCell id="xnjiOy1totS6Ebt6B5Ss-68" style="edgeStyle=none;shape=connector;rounded=0;orthogonalLoop=1;jettySize=auto;html=1;exitX=0;exitY=0.5;exitDx=0;exitDy=0;entryX=0.893;entryY=0.495;entryDx=0;entryDy=0;entryPerimeter=0;strokeColor=default;align=center;verticalAlign=middle;fontFamily=Helvetica;fontSize=11;fontColor=default;labelBackgroundColor=default;endArrow=none;endFill=0;" edge="1" parent="1" source="xnjiOy1totS6Ebt6B5Ss-2" target="xnjiOy1totS6Ebt6B5Ss-67">
          <mxGeometry relative="1" as="geometry" />
        </mxCell>
        <mxCell id="xnjiOy1totS6Ebt6B5Ss-83" style="edgeStyle=none;shape=connector;rounded=0;orthogonalLoop=1;jettySize=auto;html=1;entryX=0.5;entryY=0;entryDx=0;entryDy=0;strokeColor=default;align=center;verticalAlign=middle;fontFamily=Helvetica;fontSize=11;fontColor=default;labelBackgroundColor=default;endArrow=none;endFill=0;" edge="1" parent="1" source="xnjiOy1totS6Ebt6B5Ss-73" target="xnjiOy1totS6Ebt6B5Ss-82">
          <mxGeometry relative="1" as="geometry" />
        </mxCell>
        <mxCell id="xnjiOy1totS6Ebt6B5Ss-73" value="Calle" style="shape=ext;margin=3;double=1;whiteSpace=wrap;html=1;align=center;fontFamily=Helvetica;fontSize=11;fontColor=default;labelBackgroundColor=default;" vertex="1" parent="1">
          <mxGeometry x="40" y="680" width="100" height="40" as="geometry" />
        </mxCell>
        <mxCell id="xnjiOy1totS6Ebt6B5Ss-88" style="edgeStyle=none;shape=connector;rounded=0;orthogonalLoop=1;jettySize=auto;html=1;entryX=0;entryY=0.5;entryDx=0;entryDy=0;strokeColor=default;align=center;verticalAlign=middle;fontFamily=Helvetica;fontSize=11;fontColor=default;labelBackgroundColor=default;endArrow=none;endFill=0;" edge="1" parent="1" source="xnjiOy1totS6Ebt6B5Ss-74" target="xnjiOy1totS6Ebt6B5Ss-86">
          <mxGeometry relative="1" as="geometry" />
        </mxCell>
        <mxCell id="xnjiOy1totS6Ebt6B5Ss-74" value="Ciudad" style="shape=ext;margin=3;double=1;whiteSpace=wrap;html=1;align=center;fontFamily=Helvetica;fontSize=11;fontColor=default;labelBackgroundColor=default;" vertex="1" parent="1">
          <mxGeometry x="40" y="880" width="100" height="40" as="geometry" />
        </mxCell>
        <mxCell id="xnjiOy1totS6Ebt6B5Ss-90" style="edgeStyle=none;shape=connector;rounded=0;orthogonalLoop=1;jettySize=auto;html=1;exitX=1;exitY=0.5;exitDx=0;exitDy=0;entryX=0;entryY=0.5;entryDx=0;entryDy=0;strokeColor=default;align=center;verticalAlign=middle;fontFamily=Helvetica;fontSize=11;fontColor=default;labelBackgroundColor=default;endArrow=none;endFill=0;" edge="1" parent="1" source="xnjiOy1totS6Ebt6B5Ss-75" target="xnjiOy1totS6Ebt6B5Ss-87">
          <mxGeometry relative="1" as="geometry" />
        </mxCell>
        <mxCell id="xnjiOy1totS6Ebt6B5Ss-75" value="Provincia" style="shape=ext;margin=3;double=1;whiteSpace=wrap;html=1;align=center;fontFamily=Helvetica;fontSize=11;fontColor=default;labelBackgroundColor=default;" vertex="1" parent="1">
          <mxGeometry x="363.5" y="880" width="100" height="40" as="geometry" />
        </mxCell>
        <mxCell id="xnjiOy1totS6Ebt6B5Ss-76" value="Pais" style="shape=ext;margin=3;double=1;whiteSpace=wrap;html=1;align=center;fontFamily=Helvetica;fontSize=11;fontColor=default;labelBackgroundColor=default;" vertex="1" parent="1">
          <mxGeometry x="670" y="880" width="100" height="40" as="geometry" />
        </mxCell>
        <mxCell id="xnjiOy1totS6Ebt6B5Ss-81" style="edgeStyle=none;shape=connector;rounded=0;orthogonalLoop=1;jettySize=auto;html=1;exitX=0;exitY=0.5;exitDx=0;exitDy=0;strokeColor=default;align=center;verticalAlign=middle;fontFamily=Helvetica;fontSize=11;fontColor=default;labelBackgroundColor=default;endArrow=none;endFill=0;" edge="1" parent="1" source="xnjiOy1totS6Ebt6B5Ss-78" target="xnjiOy1totS6Ebt6B5Ss-73">
          <mxGeometry relative="1" as="geometry" />
        </mxCell>
        <mxCell id="xnjiOy1totS6Ebt6B5Ss-78" value="Relationship" style="shape=rhombus;perimeter=rhombusPerimeter;whiteSpace=wrap;html=1;align=center;" vertex="1" parent="1">
          <mxGeometry x="200" y="665" width="100" height="70" as="geometry" />
        </mxCell>
        <mxCell id="xnjiOy1totS6Ebt6B5Ss-84" style="edgeStyle=none;shape=connector;rounded=0;orthogonalLoop=1;jettySize=auto;html=1;exitX=0.5;exitY=1;exitDx=0;exitDy=0;entryX=0.5;entryY=0;entryDx=0;entryDy=0;strokeColor=default;align=center;verticalAlign=middle;fontFamily=Helvetica;fontSize=11;fontColor=default;labelBackgroundColor=default;endArrow=none;endFill=0;" edge="1" parent="1" source="xnjiOy1totS6Ebt6B5Ss-82" target="xnjiOy1totS6Ebt6B5Ss-74">
          <mxGeometry relative="1" as="geometry" />
        </mxCell>
        <mxCell id="xnjiOy1totS6Ebt6B5Ss-82" value="Relationship" style="shape=rhombus;perimeter=rhombusPerimeter;whiteSpace=wrap;html=1;align=center;" vertex="1" parent="1">
          <mxGeometry x="40" y="760" width="100" height="70" as="geometry" />
        </mxCell>
        <mxCell id="xnjiOy1totS6Ebt6B5Ss-89" style="edgeStyle=none;shape=connector;rounded=0;orthogonalLoop=1;jettySize=auto;html=1;exitX=1;exitY=0.5;exitDx=0;exitDy=0;entryX=0;entryY=0.5;entryDx=0;entryDy=0;strokeColor=default;align=center;verticalAlign=middle;fontFamily=Helvetica;fontSize=11;fontColor=default;labelBackgroundColor=default;endArrow=none;endFill=0;" edge="1" parent="1" source="xnjiOy1totS6Ebt6B5Ss-86" target="xnjiOy1totS6Ebt6B5Ss-75">
          <mxGeometry relative="1" as="geometry" />
        </mxCell>
        <mxCell id="xnjiOy1totS6Ebt6B5Ss-86" value="Relationship" style="shape=rhombus;perimeter=rhombusPerimeter;whiteSpace=wrap;html=1;align=center;" vertex="1" parent="1">
          <mxGeometry x="200" y="865" width="100" height="70" as="geometry" />
        </mxCell>
        <mxCell id="xnjiOy1totS6Ebt6B5Ss-91" style="edgeStyle=none;shape=connector;rounded=0;orthogonalLoop=1;jettySize=auto;html=1;exitX=1;exitY=0.5;exitDx=0;exitDy=0;entryX=0;entryY=0.5;entryDx=0;entryDy=0;strokeColor=default;align=center;verticalAlign=middle;fontFamily=Helvetica;fontSize=11;fontColor=default;labelBackgroundColor=default;endArrow=none;endFill=0;" edge="1" parent="1" source="xnjiOy1totS6Ebt6B5Ss-87" target="xnjiOy1totS6Ebt6B5Ss-76">
          <mxGeometry relative="1" as="geometry" />
        </mxCell>
        <mxCell id="xnjiOy1totS6Ebt6B5Ss-87" value="Relationship" style="shape=rhombus;perimeter=rhombusPerimeter;whiteSpace=wrap;html=1;align=center;" vertex="1" parent="1">
          <mxGeometry x="520" y="865" width="100" height="70" as="geometry" />
        </mxCell>
        <mxCell id="xnjiOy1totS6Ebt6B5Ss-93" style="edgeStyle=none;shape=connector;rounded=0;orthogonalLoop=1;jettySize=auto;html=1;exitX=0.5;exitY=1;exitDx=0;exitDy=0;entryX=0.5;entryY=0;entryDx=0;entryDy=0;strokeColor=default;align=center;verticalAlign=middle;fontFamily=Helvetica;fontSize=11;fontColor=default;labelBackgroundColor=default;endArrow=none;endFill=0;" edge="1" parent="1" source="xnjiOy1totS6Ebt6B5Ss-92" target="xnjiOy1totS6Ebt6B5Ss-73">
          <mxGeometry relative="1" as="geometry" />
        </mxCell>
        <mxCell id="xnjiOy1totS6Ebt6B5Ss-92" value="&lt;u&gt;Nombre&lt;/u&gt;" style="ellipse;whiteSpace=wrap;html=1;align=center;fontFamily=Helvetica;fontSize=11;fontColor=default;labelBackgroundColor=default;" vertex="1" parent="1">
          <mxGeometry x="40" y="610" width="100" height="40" as="geometry" />
        </mxCell>
        <mxCell id="xnjiOy1totS6Ebt6B5Ss-97" style="edgeStyle=none;shape=connector;rounded=0;orthogonalLoop=1;jettySize=auto;html=1;exitX=0.5;exitY=0;exitDx=0;exitDy=0;entryX=0.25;entryY=1;entryDx=0;entryDy=0;strokeColor=default;align=center;verticalAlign=middle;fontFamily=Helvetica;fontSize=11;fontColor=default;labelBackgroundColor=default;endArrow=none;endFill=0;" edge="1" parent="1" source="xnjiOy1totS6Ebt6B5Ss-94" target="xnjiOy1totS6Ebt6B5Ss-74">
          <mxGeometry relative="1" as="geometry" />
        </mxCell>
        <mxCell id="xnjiOy1totS6Ebt6B5Ss-94" value="&lt;u&gt;CP&lt;/u&gt;" style="ellipse;whiteSpace=wrap;html=1;align=center;fontFamily=Helvetica;fontSize=11;fontColor=default;labelBackgroundColor=default;" vertex="1" parent="1">
          <mxGeometry x="10" y="940" width="70" height="30" as="geometry" />
        </mxCell>
        <mxCell id="xnjiOy1totS6Ebt6B5Ss-98" style="edgeStyle=none;shape=connector;rounded=0;orthogonalLoop=1;jettySize=auto;html=1;exitX=0.5;exitY=0;exitDx=0;exitDy=0;entryX=0.75;entryY=1;entryDx=0;entryDy=0;strokeColor=default;align=center;verticalAlign=middle;fontFamily=Helvetica;fontSize=11;fontColor=default;labelBackgroundColor=default;endArrow=none;endFill=0;" edge="1" parent="1" source="xnjiOy1totS6Ebt6B5Ss-96" target="xnjiOy1totS6Ebt6B5Ss-74">
          <mxGeometry relative="1" as="geometry" />
        </mxCell>
        <mxCell id="xnjiOy1totS6Ebt6B5Ss-96" value="Nombre" style="ellipse;whiteSpace=wrap;html=1;align=center;fontFamily=Helvetica;fontSize=11;fontColor=default;labelBackgroundColor=default;" vertex="1" parent="1">
          <mxGeometry x="90" y="940" width="70" height="30" as="geometry" />
        </mxCell>
        <mxCell id="xnjiOy1totS6Ebt6B5Ss-102" style="edgeStyle=none;shape=connector;rounded=0;orthogonalLoop=1;jettySize=auto;html=1;entryX=0.5;entryY=1;entryDx=0;entryDy=0;strokeColor=default;align=center;verticalAlign=middle;fontFamily=Helvetica;fontSize=11;fontColor=default;labelBackgroundColor=default;endArrow=none;endFill=0;" edge="1" parent="1" source="xnjiOy1totS6Ebt6B5Ss-99" target="xnjiOy1totS6Ebt6B5Ss-75">
          <mxGeometry relative="1" as="geometry" />
        </mxCell>
        <mxCell id="xnjiOy1totS6Ebt6B5Ss-99" value="&lt;u&gt;Nombre&lt;/u&gt;" style="ellipse;whiteSpace=wrap;html=1;align=center;fontFamily=Helvetica;fontSize=11;fontColor=default;labelBackgroundColor=default;" vertex="1" parent="1">
          <mxGeometry x="379" y="940" width="70" height="30" as="geometry" />
        </mxCell>
        <mxCell id="xnjiOy1totS6Ebt6B5Ss-103" style="edgeStyle=none;shape=connector;rounded=0;orthogonalLoop=1;jettySize=auto;html=1;exitX=0.5;exitY=0;exitDx=0;exitDy=0;entryX=0.25;entryY=1;entryDx=0;entryDy=0;strokeColor=default;align=center;verticalAlign=middle;fontFamily=Helvetica;fontSize=11;fontColor=default;labelBackgroundColor=default;endArrow=none;endFill=0;" edge="1" parent="1" source="xnjiOy1totS6Ebt6B5Ss-100" target="xnjiOy1totS6Ebt6B5Ss-76">
          <mxGeometry relative="1" as="geometry" />
        </mxCell>
        <mxCell id="xnjiOy1totS6Ebt6B5Ss-100" value="&lt;u&gt;Nombre&lt;/u&gt;" style="ellipse;whiteSpace=wrap;html=1;align=center;fontFamily=Helvetica;fontSize=11;fontColor=default;labelBackgroundColor=default;" vertex="1" parent="1">
          <mxGeometry x="650" y="940" width="70" height="30" as="geometry" />
        </mxCell>
        <mxCell id="xnjiOy1totS6Ebt6B5Ss-104" style="edgeStyle=none;shape=connector;rounded=0;orthogonalLoop=1;jettySize=auto;html=1;exitX=0.5;exitY=0;exitDx=0;exitDy=0;entryX=0.75;entryY=1;entryDx=0;entryDy=0;strokeColor=default;align=center;verticalAlign=middle;fontFamily=Helvetica;fontSize=11;fontColor=default;labelBackgroundColor=default;endArrow=none;endFill=0;" edge="1" parent="1" source="xnjiOy1totS6Ebt6B5Ss-101" target="xnjiOy1totS6Ebt6B5Ss-76">
          <mxGeometry relative="1" as="geometry" />
        </mxCell>
        <mxCell id="xnjiOy1totS6Ebt6B5Ss-101" value="Fac_coste" style="ellipse;whiteSpace=wrap;html=1;align=center;fontFamily=Helvetica;fontSize=11;fontColor=default;labelBackgroundColor=default;" vertex="1" parent="1">
          <mxGeometry x="730" y="940" width="70" height="30" as="geometry" />
        </mxCell>
        <mxCell id="xnjiOy1totS6Ebt6B5Ss-107" value="E" style="text;html=1;align=center;verticalAlign=middle;resizable=0;points=[];autosize=1;strokeColor=none;fillColor=none;fontFamily=Helvetica;fontSize=11;fontColor=default;labelBackgroundColor=default;" vertex="1" parent="1">
          <mxGeometry x="135" y="858" width="30" height="30" as="geometry" />
        </mxCell>
        <mxCell id="xnjiOy1totS6Ebt6B5Ss-108" value="ID" style="text;html=1;align=center;verticalAlign=middle;resizable=0;points=[];autosize=1;strokeColor=none;fillColor=none;fontFamily=Helvetica;fontSize=11;fontColor=default;labelBackgroundColor=default;" vertex="1" parent="1">
          <mxGeometry x="135" y="658" width="30" height="30" as="geometry" />
        </mxCell>
        <mxCell id="xnjiOy1totS6Ebt6B5Ss-109" value="ID" style="text;html=1;align=center;verticalAlign=middle;resizable=0;points=[];autosize=1;strokeColor=none;fillColor=none;fontFamily=Helvetica;fontSize=11;fontColor=default;labelBackgroundColor=default;" vertex="1" parent="1">
          <mxGeometry x="464" y="858" width="30" height="30" as="geometry" />
        </mxCell>
        <mxCell id="xnjiOy1totS6Ebt6B5Ss-113" style="edgeStyle=none;shape=connector;rounded=0;orthogonalLoop=1;jettySize=auto;html=1;exitX=0.5;exitY=0;exitDx=0;exitDy=0;entryX=0.75;entryY=1;entryDx=0;entryDy=0;strokeColor=default;align=center;verticalAlign=middle;fontFamily=Helvetica;fontSize=11;fontColor=default;labelBackgroundColor=default;endArrow=none;endFill=0;" edge="1" parent="1" source="xnjiOy1totS6Ebt6B5Ss-110" target="xnjiOy1totS6Ebt6B5Ss-3">
          <mxGeometry relative="1" as="geometry" />
        </mxCell>
        <mxCell id="xnjiOy1totS6Ebt6B5Ss-110" value="Nombre" style="ellipse;whiteSpace=wrap;html=1;align=center;fontFamily=Helvetica;fontSize=11;fontColor=default;labelBackgroundColor=default;" vertex="1" parent="1">
          <mxGeometry x="440" y="760" width="100" height="40" as="geometry" />
        </mxCell>
        <mxCell id="xnjiOy1totS6Ebt6B5Ss-112" style="edgeStyle=none;shape=connector;rounded=0;orthogonalLoop=1;jettySize=auto;html=1;exitX=0.5;exitY=0;exitDx=0;exitDy=0;entryX=0.25;entryY=1;entryDx=0;entryDy=0;strokeColor=default;align=center;verticalAlign=middle;fontFamily=Helvetica;fontSize=11;fontColor=default;labelBackgroundColor=default;endArrow=none;endFill=0;" edge="1" parent="1" source="xnjiOy1totS6Ebt6B5Ss-111" target="xnjiOy1totS6Ebt6B5Ss-3">
          <mxGeometry relative="1" as="geometry" />
        </mxCell>
        <mxCell id="xnjiOy1totS6Ebt6B5Ss-111" value="&lt;u&gt;NIF&lt;/u&gt;" style="ellipse;whiteSpace=wrap;html=1;align=center;fontFamily=Helvetica;fontSize=11;fontColor=default;labelBackgroundColor=default;" vertex="1" parent="1">
          <mxGeometry x="300" y="760" width="100" height="40" as="geometry" />
        </mxCell>
      </root>
    </mxGraphModel>
  </diagram>
</mxfile>
